<?xml version="1.0" encoding="utf-8"?>
<svg viewBox="208.219 85.679 381.57 588.792" xmlns="http://www.w3.org/2000/svg">
  <defs>
    <clipPath clipPathUnits="userSpaceOnUse" id="clipPath62304">
      <path d="M 0,600 H 600 V 0 H 0 Z" id="path62302"/>
    </clipPath>
  </defs>
  <g id="g62296" transform="matrix(1.333333, 0, 0, -1.333333, 0, 800)">
    <g id="g62298">
      <g id="g62300" clip-path="url(#clipPath62304)">
        <g id="g62306" transform="translate(328.8672,516.668)">
          <path d="m 0,0 c -12.503,-60.186 98.099,-76.062 98.099,-174.368 0,-69.645 -15.128,-143.115 -39.433,-191.773 -14.267,-28.558 -41.618,-45.469 -73.543,-45.469 h -30.626 c -31.925,0 -59.277,16.911 -73.543,45.469 -24.305,48.658 -39.433,122.128 -39.433,191.773 C -158.479,-76.062 12.503,60.185 0,0" style="fill:#f68294;fill-opacity:1;fill-rule:evenodd;stroke:none" id="path62308"/>
        </g>
        <g id="g62310" transform="translate(389.6787,427.9316)">
          <path d="m 0,0 c 20.075,-20.905 37.287,-46.853 37.287,-85.631 0,-69.645 -15.128,-143.115 -39.432,-191.773 -14.267,-28.559 -41.619,-45.47 -73.543,-45.47 h -30.626 c -3.668,0 -7.276,0.227 -10.81,0.665 38.865,-0.975 85.559,14.921 105.891,49.081 6.963,11.7 6.742,20.546 -2.652,24.054 -34.005,-27.765 -53.396,-22.035 -95.4,-18.6 13.446,1.301 26.557,3.528 39.239,6.929 46.903,12.58 80.095,49.176 88.05,97.08 2.973,17.905 6.786,21.253 -1.425,31.391 -42.648,-56.854 -101.217,-75.546 -149.864,-54.401 52.159,-0.574 89.513,14.666 127.866,50.104 36.382,33.615 32.82,92.452 6.694,134.536 C 0.853,-1.355 0.428,-0.676 0,0" style="fill:#f46d80;fill-opacity:1;fill-rule:evenodd;stroke:none" id="path62312"/>
        </g>
        <g id="g62314" transform="translate(208.5498,340.6328)">
          <path d="M 0,0 C 7.602,0 13.801,6.469 13.801,14.4 13.801,22.332 7.602,28.8 0,28.8 -7.6,28.8 -13.8,22.332 -13.8,14.4 -13.8,6.469 -7.6,0 0,0" style="fill:#fad1a4;fill-opacity:1;fill-rule:evenodd;stroke:none" id="path62316"/>
        </g>
        <g id="g62318" transform="translate(208.5498,345.6411)">
          <path d="m 0,0 c 4.957,0 9.001,4.219 9.001,9.392 0,5.173 -4.044,9.392 -9.001,9.392 -4.956,0 -9,-4.219 -9,-9.392 C -9,4.219 -4.956,0 0,0" style="fill:#c0884a;fill-opacity:1;fill-rule:evenodd;stroke:none" id="path62320"/>
        </g>
        <g id="g62322" transform="translate(317.042,448.8604)">
          <path d="m 0,0 c 32.916,-26.547 68.699,-50.524 66.314,-86.771 -2.384,-36.248 -41.185,-65.631 -86.664,-65.631 -45.478,0 -80.414,29.383 -78.029,65.631 C -95.994,-50.524 -32.916,26.547 0,0" style="fill:#d95465;fill-opacity:1;fill-rule:evenodd;stroke:none" id="path62324"/>
        </g>
        <g id="g62326" transform="translate(371.5313,340.6328)">
          <path d="M 0,0 C 7.601,0 13.8,6.469 13.8,14.4 13.8,22.332 7.601,28.8 0,28.8 -7.601,28.8 -13.8,22.332 -13.8,14.4 -13.8,6.469 -7.601,0 0,0" style="fill:#fad1a4;fill-opacity:1;fill-rule:evenodd;stroke:none" id="path62328"/>
        </g>
        <g id="g62330" transform="translate(371.5313,345.6411)">
          <path d="m 0,0 c 4.957,0 9,4.219 9,9.392 0,5.173 -4.043,9.392 -9,9.392 -4.957,0 -9,-4.219 -9,-9.392 C -9,4.219 -4.957,0 0,0" style="fill:#c0884a;fill-opacity:1;fill-rule:evenodd;stroke:none" id="path62332"/>
        </g>
        <g id="g62334" transform="translate(290.3936,285.3584)">
          <path d="m 0,0 c 46.646,0 84.692,29.024 84.692,64.611 0,35.587 -38.046,64.611 -84.692,64.611 -46.646,0 -84.693,-29.024 -84.693,-64.611 C -84.693,29.024 -46.646,0 0,0" style="fill:#fbc589;fill-opacity:1;fill-rule:evenodd;stroke:none" id="path62336"/>
        </g>
        <g id="g62338" transform="translate(269,403.853)">
          <path d="M 0,0 C 7.638,-20.9 32.541,-12.363 34.841,2.424 39.691,33.609 8.78,38.042 24.75,46.71 0.263,40.082 18.95,32.17 12.579,24.776 5.041,16.028 -2.719,7.441 0,0" style="fill:#f2a50f;fill-opacity:1;fill-rule:evenodd;stroke:none" id="path62340"/>
        </g>
        <g id="g62342" transform="translate(285.7334,432.4922)">
          <path d="m 0,0 c -0.002,-2.696 -0.854,-5.296 -3.052,-7.846 -2.408,-2.795 -12.66,-9.965 -11.345,-18.021 1.563,-4.278 4.366,-7.753 9.184,-8.008 5.28,-0.278 11.734,3.678 12.584,9.147 C 9.281,-12.453 4.594,-5.585 0,0" style="fill:#fbc71b;fill-opacity:1;fill-rule:evenodd;stroke:none" id="path62344"/>
        </g>
        <g id="g62346" transform="translate(251.3018,340.6343)">
          <path d="M 0,0 C 6.527,0 11.85,5.323 11.85,11.85 11.85,18.376 6.527,23.7 0,23.7 -6.527,23.7 -11.85,18.376 -11.85,11.85 -11.85,5.323 -6.527,0 0,0" style="fill:#1c1a19;fill-opacity:1;fill-rule:evenodd;stroke:none" id="path62348"/>
        </g>
        <g id="g62350" transform="translate(256.0635,349.7842)">
          <path d="m 0,0 c 3.119,0 5.663,2.543 5.663,5.662 0,3.119 -2.544,5.663 -5.663,5.663 -3.118,0 -5.662,-2.544 -5.662,-5.663 C -5.662,2.543 -3.118,0 0,0" style="fill:#e8e8e7;fill-opacity:1;fill-rule:evenodd;stroke:none" id="path62352"/>
        </g>
        <g id="g62354" transform="translate(319.4395,340.9341)">
          <path d="M 0,0 C 6.526,0 11.85,5.323 11.85,11.85 11.85,18.377 6.526,23.7 0,23.7 -6.526,23.7 -11.85,18.377 -11.85,11.85 -11.85,5.323 -6.526,0 0,0" style="fill:#1c1a19;fill-opacity:1;fill-rule:evenodd;stroke:none" id="path62356"/>
        </g>
        <g id="g62358" transform="translate(324.2012,350.084)">
          <path d="m 0,0 c 3.119,0 5.663,2.544 5.663,5.663 0,3.119 -2.544,5.663 -5.663,5.663 -3.118,0 -5.662,-2.544 -5.662,-5.663 C -5.662,2.544 -3.118,0 0,0" style="fill:#e8e8e7;fill-opacity:1;fill-rule:evenodd;stroke:none" id="path62360"/>
        </g>
        <g id="g62362" transform="translate(238.251,326.9834)">
          <path d="M 0,0 C 7.022,0 12.75,2.628 12.75,5.85 12.75,9.072 7.022,11.7 0,11.7 -7.023,11.7 -12.75,9.072 -12.75,5.85 -12.75,2.628 -7.023,0 0,0" style="fill:#f68294;fill-opacity:1;fill-rule:evenodd;stroke:none" id="path62364"/>
        </g>
        <g id="g62366" transform="translate(290.5557,326.4697)">
          <path d="M 0,0 C 13.794,0 24.676,-4.693 24.676,-14.925 24.676,-25.156 13.794,-37.05 0,-37.05 c -13.793,0 -25.274,11.894 -25.274,22.125 C -25.274,-4.693 -13.793,0 0,0" style="fill:#f5b672;fill-opacity:1;fill-rule:evenodd;stroke:none" id="path62368"/>
        </g>
        <g id="g62370" transform="translate(328.251,325.7832)">
          <path d="M 0,0 C 7.022,0 12.75,2.628 12.75,5.85 12.75,9.072 7.022,11.7 0,11.7 -7.024,11.7 -12.75,9.072 -12.75,5.85 -12.75,2.628 -7.024,0 0,0" style="fill:#f68294;fill-opacity:1;fill-rule:evenodd;stroke:none" id="path62372"/>
        </g>
        <g id="g62374" transform="translate(286.3252,329.2334)">
          <path d="M 0,0 C 13.793,0 24.675,-4.693 24.675,-14.925 24.675,-25.156 13.793,-37.05 0,-37.05 c -13.793,0 -25.275,11.894 -25.275,22.125 C -25.275,-4.693 -13.793,0 0,0" style="fill:#971a1f;fill-opacity:1;fill-rule:evenodd;stroke:none" id="path62376"/>
        </g>
        <g id="g62378" transform="translate(279.5869,325.6631)">
          <path d="m 0,0 c 9.196,0 16.029,-3.129 15.111,-9.949 -0.918,-6.822 -9.24,-14.75 -18.436,-14.75 -9.195,0 -15.782,7.928 -14.864,14.75 C -17.271,-3.129 -9.195,0 0,0" style="fill:#a61c22;fill-opacity:1;fill-rule:evenodd;stroke:none" id="path62380"/>
        </g>
        <g id="g62382" transform="translate(305.418,324.6279)">
          <path d="m 0,0 c 3.499,-2.428 5.582,-5.844 5.582,-10.319 0,-10.232 -10.882,-22.125 -24.675,-22.125 -7.898,0 -15.036,3.899 -19.697,9.153 4.437,-3.588 10.182,-6.004 16.396,-6.004 C -8.6,-29.295 2.282,-17.4 2.282,-7.17 2.282,-4.371 1.466,-1.987 0,0" style="fill:#87181c;fill-opacity:1;fill-rule:evenodd;stroke:none" id="path62384"/>
        </g>
        <g id="g62386" transform="translate(287.5928,305.4932)">
          <path d="m 0,0 c 4.048,0 7.35,3.301 7.35,7.35 0,4.047 -3.302,7.349 -7.35,7.349 -4.049,0 -7.351,-3.302 -7.351,-7.349 C -7.351,3.301 -4.049,0 0,0" style="fill:#87181c;fill-opacity:1;fill-rule:evenodd;stroke:none" id="path62388"/>
        </g>
        <g id="g62390" transform="translate(286.3252,312.1367)">
          <path d="m 0,0 c -11.02,0 -19.953,-8.934 -19.953,-19.953 0,-11.021 8.933,-19.954 19.953,-19.954 11.02,0 19.953,8.933 19.953,19.954 C 19.953,-8.934 11.02,0 0,0 m 0,4.946 c 13.752,0 24.9,-11.147 24.9,-24.899 0,-13.752 -11.148,-24.9 -24.9,-24.9 -13.752,0 -24.9,11.148 -24.9,24.9 0,13.752 11.148,24.899 24.9,24.899" style="fill:#ffffff;fill-opacity:1;fill-rule:evenodd;stroke:none" id="path62392"/>
        </g>
        <g id="g62394" transform="translate(286.0254,306.8818)">
          <path d="m 0,0 c 4.048,0 7.351,3.303 7.351,7.351 0,4.047 -3.303,7.35 -7.351,7.35 -4.048,0 -7.351,-3.303 -7.351,-7.35 C -7.351,3.303 -4.048,0 0,0" style="fill:#f2a50f;fill-opacity:1;fill-rule:evenodd;stroke:none" id="path62396"/>
        </g>
        <g id="g62398" transform="translate(284.6025,320.4131)">
          <path d="m 0,0 c 2.336,0 3.917,-1.894 3.53,-4.23 -0.386,-2.336 -2.594,-4.231 -4.931,-4.231 -2.337,0 -3.917,1.895 -3.531,4.231 C -4.545,-1.894 -2.337,0 0,0" style="fill:#fbca07;fill-opacity:1;fill-rule:evenodd;stroke:none" id="path62400"/>
        </g>
        <g id="g62402" transform="translate(308.2324,204.4375)">
          <path d="M 0,0 32.266,15.278 64.874,-53.593 32.608,-68.87 Z" style="fill:#4d7fc9;fill-opacity:1;fill-rule:evenodd;stroke:none" id="path62404"/>
        </g>
        <path d="m 293.655,119.984 h 35.7 v 93.057 h -35.7 z" style="fill:#4d7fc9;fill-opacity:1;fill-rule:evenodd;stroke:none" id="path62406"/>
        <g id="g62408" transform="translate(169.1987,310.3037)">
          <path d="m 0,0 c 8.979,-21.27 41.835,-46.317 88.246,-66.648 43.384,-19.006 97.507,-32.892 154.586,-34.996 -1.367,-12.859 -8.756,-32.273 -14.257,-41.705 -58.076,3.768 -112.809,18.357 -157.271,37.834 C 47.568,-95.116 26.519,-83.125 9.141,-70.408 4.37,-46.053 1.042,-38.01 0,0" style="fill:#4d7fc9;fill-opacity:1;fill-rule:evenodd;stroke:none" id="path62410"/>
        </g>
        <g id="g62412" transform="translate(257.6406,168.8525)">
          <path d="M 0,0 C 10.78,-17.19 47.063,-4.035 59.011,21.44 55.05,32.342 51.089,43.245 47.128,54.148 33.622,32.122 2.531,14.316 -11.883,32.708 -7.923,21.806 -3.961,10.903 0,0" style="fill:#4172be;fill-opacity:1;fill-rule:evenodd;stroke:none" id="path62414"/>
        </g>
        <g id="g62416" transform="translate(245.7578,201.5605)">
          <path d="M 0,0 C -2.769,20.102 33.497,33.304 59.011,21.439 62.972,10.537 66.933,-0.366 70.894,-11.268 46.399,-3.049 11.13,-9.352 11.883,-32.708 7.922,-21.805 3.96,-10.902 0,0" style="fill:#70a0db;fill-opacity:1;fill-rule:evenodd;stroke:none" id="path62418"/>
        </g>
        <g id="g62420" transform="translate(375.6631,211.7305)">
          <path d="M 0,0 C 2.768,-20.101 -33.498,-33.303 -59.012,-21.438 -62.973,-10.536 -70.458,-1.283 -70.895,11.27 -46.4,3.05 -11.13,9.352 -11.884,32.708 -7.923,21.806 -3.961,10.903 0,0" style="fill:#4172be;fill-opacity:1;fill-rule:evenodd;stroke:none" id="path62422"/>
        </g>
        <g id="g62424" transform="translate(363.7793,244.4385)">
          <path d="m 0,0 c -10.78,17.191 -47.061,4.035 -59.011,-21.438 0.437,-12.553 3.572,-23.156 11.883,-32.708 13.506,22.025 44.597,39.832 59.012,21.438 C 7.923,-21.805 3.961,-10.902 0,0" style="fill:#70a0db;fill-opacity:1;fill-rule:evenodd;stroke:none" id="path62426"/>
        </g>
      </g>
    </g>
  </g>
</svg>